<?xml version="1.0" standalone="no"?>
<!DOCTYPE svg PUBLIC "-//W3C//DTD SVG 20010904//EN"
 "http://www.w3.org/TR/2001/REC-SVG-20010904/DTD/svg10.dtd">
<svg version="1.0" xmlns="http://www.w3.org/2000/svg"
 width="260.000000pt" height="260.000000pt" viewBox="0 0 260.000000 260.000000"
 preserveAspectRatio="xMidYMid meet">
<metadata>
Created by potrace 1.14, written by Peter Selinger 2001-2017
</metadata>
<g transform="translate(0.000000,260.000000) scale(0.100000,-0.100000)"
fill="#000000" stroke="none">
<path d="M1703 2385 c0 -9 4 -14 9 -13 5 2 10 8 10 13 0 5 -5 11 -10 13 -5 1
-9 -4 -9 -13z"/>
<path d="M2043 2298 c-34 -4 -77 -15 -97 -25 -19 -10 -94 -76 -165 -146 -125
-125 -130 -128 -177 -132 -27 -2 -49 -4 -49 -5 0 0 -22 -2 -50 -4 -27 -2 -59
-6 -70 -9 -51 -13 -119 -64 -150 -110 -17 -27 -17 -28 14 -78 17 -28 31 -55
31 -60 0 -5 5 -9 10 -9 23 0 6 -29 -50 -85 -57 -56 -72 -86 -50 -100 5 -3 2
-13 -9 -23 -23 -22 -78 -62 -86 -62 -4 0 -20 -13 -37 -30 -16 -16 -37 -30 -47
-30 -10 0 -21 -3 -25 -7 -3 -4 -25 -8 -49 -10 -23 -1 -53 -4 -67 -5 -18 -2
-39 11 -80 50 -30 29 -70 58 -88 64 -23 9 -32 18 -29 29 2 9 0 24 -5 33 -6 10
-5 16 2 16 8 0 8 6 0 20 -6 11 -8 20 -5 20 6 0 -29 68 -48 92 -14 18 -101 69
-114 67 -4 -1 -20 -1 -34 0 -26 1 -26 1 -14 39 7 20 11 56 8 80 -3 28 0 50 9
65 8 12 17 32 20 45 l6 22 -27 -19 c-47 -34 -156 -144 -198 -201 -71 -95 -145
-250 -158 -327 -2 -12 -6 -26 -9 -32 -6 -9 -15 -66 -18 -108 -1 -7 -4 -13 -7
-13 -5 0 -7 -198 -2 -210 1 -3 4 -21 7 -40 5 -40 12 -75 14 -75 1 0 4 -11 6
-25 9 -51 7 -45 56 -170 12 -30 27 -60 33 -67 7 -6 18 -25 25 -42 7 -17 16
-31 21 -31 5 0 9 -5 9 -11 0 -19 96 -133 151 -180 28 -24 56 -49 63 -54 44
-41 194 -124 261 -145 22 -7 46 -17 52 -23 7 -5 13 -6 13 -3 0 4 8 2 18 -3 16
-9 56 -17 132 -28 82 -11 276 -4 340 12 14 4 34 8 45 9 11 2 20 4 20 5 0 2 8
4 19 6 30 6 128 46 186 78 115 62 245 170 303 251 l21 29 -36 -6 c-32 -5 -38
-2 -73 40 -21 25 -53 51 -71 59 -58 24 -155 18 -199 -12 -24 -17 -35 -18 -35
-1 0 33 -61 107 -108 131 -45 23 -50 29 -56 68 -4 24 -13 52 -20 63 -7 11 -13
37 -14 58 -1 20 -6 47 -13 58 -14 26 -6 59 23 91 13 14 32 38 43 52 11 15 26
33 33 41 7 8 10 15 7 15 -4 0 8 15 27 33 18 18 38 32 45 29 6 -2 41 26 77 62
l65 65 48 -32 c27 -18 61 -38 77 -45 27 -12 30 -11 77 37 69 71 87 120 90 256
l2 70 143 146 c115 118 145 154 155 190 17 55 20 216 5 228 -16 13 -102 17
-173 9z m137 -37 c0 -13 -142 -141 -185 -167 -25 -14 -45 -30 -45 -36 0 -5 5
-6 12 -2 13 8 3 -10 -19 -35 -58 -65 -64 -76 -47 -88 10 -7 20 -10 25 -8 4 3
10 1 13 -4 5 -8 -84 -65 -174 -111 l-25 -13 20 24 c11 13 24 29 30 34 5 6 19
20 29 33 19 22 19 22 -14 36 l-34 14 57 36 c31 20 60 36 64 36 11 1 53 36 53
45 0 3 -13 -3 -29 -14 -16 -12 -32 -21 -35 -21 -3 0 -38 -20 -78 -45 -71 -44
-71 -44 -44 -55 15 -5 32 -10 37 -10 5 0 9 -3 9 -6 0 -18 -275 -304 -301 -313
-6 -2 -17 6 -25 18 -8 12 -19 21 -24 21 -4 0 -37 -29 -73 -64 l-65 -64 -28 29
-28 29 67 69 c37 38 67 74 67 80 0 6 -9 16 -20 23 -11 7 -20 16 -20 21 0 4
-12 26 -26 48 l-26 41 32 33 c44 46 105 73 180 80 83 9 109 12 139 19 13 3 80
61 148 128 68 68 138 131 157 141 51 27 226 41 226 18z m-700 -703 l31 -32
-48 -50 c-80 -83 -76 -76 -59 -100 13 -20 12 -24 -9 -44 -13 -12 -26 -22 -29
-22 -4 0 -27 -20 -52 -45 -24 -25 -50 -45 -58 -45 -8 0 -17 -7 -20 -16 -3 -8
-10 -13 -14 -10 -5 3 -17 -1 -27 -8 -20 -14 -65 -10 -66 8 -5 56 4 102 22 115
10 7 19 20 19 28 0 7 7 16 15 19 8 4 15 12 15 20 0 8 9 23 20 34 12 12 18 25
15 30 -4 6 -1 10 4 10 22 0 26 2 34 16 4 8 19 14 32 14 15 0 44 20 80 55 32
30 59 55 61 55 2 0 18 -14 34 -32z"/>
<path d="M1430 2204 c0 -8 5 -12 10 -9 6 3 10 10 10 16 0 5 -4 9 -10 9 -5 0
-10 -7 -10 -16z"/>
<path d="M1315 2190 c-4 -6 -3 -16 3 -22 6 -6 12 -6 17 2 4 6 3 16 -3 22 -6 6
-12 6 -17 -2z"/>
<path d="M971 2143 c-2 -53 -8 -103 -13 -108 -2 -3 -30 -6 -61 -8 -31 -2 -60
-7 -64 -12 -5 -4 -2 -5 5 -1 6 4 12 3 12 -2 0 -5 18 -9 40 -8 22 1 47 -3 57
-8 18 -11 20 -18 25 -108 4 -71 12 -54 21 45 3 27 10 54 15 59 6 6 36 11 66
12 73 1 66 18 -9 23 -32 2 -61 5 -63 8 -2 2 -6 32 -9 67 -5 72 -20 99 -22 41z"/>
<path d="M2117 1834 c-8 -8 1 -24 13 -24 4 0 10 7 14 15 5 15 -14 21 -27 9z"/>
<path d="M715 1690 c-3 -5 1 -10 9 -10 8 0 18 5 21 10 3 6 -1 10 -9 10 -8 0
-18 -4 -21 -10z"/>
<path d="M950 1560 c-8 -15 -6 -21 9 -30 27 -14 29 -13 42 11 9 17 8 23 -2 30
-22 14 -38 10 -49 -11z"/>
<path d="M2440 1510 c-13 -8 -12 -10 3 -10 9 0 17 5 17 10 0 12 -1 12 -20 0z"/>
<path d="M2365 1461 c-7 -12 12 -24 25 -16 11 7 4 25 -10 25 -5 0 -11 -4 -15
-9z"/>
<path d="M2065 1410 c-8 -13 3 -30 20 -30 14 0 27 24 18 34 -10 9 -31 7 -38
-4z"/>
<path d="M2440 1409 c0 -5 5 -7 10 -4 6 3 10 8 10 11 0 2 -4 4 -10 4 -5 0 -10
-5 -10 -11z"/>
<path d="M1680 1106 c-10 -13 -10 -19 0 -32 12 -14 15 -14 29 0 14 15 14 17 0
32 -14 14 -17 14 -29 0z"/>
<path d="M1455 1040 c3 -5 8 -10 11 -10 2 0 4 5 4 10 0 6 -5 10 -11 10 -5 0
-7 -4 -4 -10z"/>
<path d="M2036 971 c10 -10 21 -15 24 -11 3 4 14 12 25 18 17 10 14 11 -24 12
-44 0 -44 0 -25 -19z"/>
</g>
</svg>
