<?xml version="1.0" standalone="no"?>
<!DOCTYPE svg PUBLIC "-//W3C//DTD SVG 20010904//EN"
 "http://www.w3.org/TR/2001/REC-SVG-20010904/DTD/svg10.dtd">
<svg version="1.0" xmlns="http://www.w3.org/2000/svg"
 width="818.000000pt" height="818.000000pt" viewBox="0 0 818.000000 818.000000"
 preserveAspectRatio="xMidYMid meet">
<metadata>
Created by potrace 1.14, written by Peter Selinger 2001-2017
</metadata>
<g transform="translate(0.000000,818.000000) scale(0.100000,-0.100000)"
fill="#000000" stroke="none">
<path d="M3939 8076 c-2 -2 -51 -6 -109 -10 -58 -3 -116 -8 -130 -10 -14 -2
-50 -7 -80 -10 -121 -14 -324 -52 -460 -88 -63 -16 -122 -31 -130 -33 -42 -9
-201 -63 -330 -112 -362 -137 -775 -375 -1075 -622 -122 -100 -122 -100 -218
-191 -218 -207 -387 -402 -541 -625 -42 -60 -79 -114 -84 -120 -26 -34 -152
-255 -207 -363 -138 -275 -261 -605 -314 -847 -6 -27 -19 -88 -30 -135 -18
-81 -27 -127 -36 -195 -3 -16 -6 -39 -9 -50 -2 -11 -7 -49 -11 -85 -4 -36 -8
-80 -10 -98 -23 -198 -23 -551 -1 -777 2 -16 6 -61 10 -100 4 -38 9 -77 11
-85 2 -8 7 -33 10 -55 3 -23 7 -52 10 -65 21 -112 28 -144 42 -205 43 -193
147 -519 194 -607 5 -10 9 -23 9 -29 0 -18 172 -364 233 -469 174 -300 366
-549 617 -801 164 -164 211 -207 306 -284 27 -21 51 -42 54 -45 8 -8 177 -132
250 -182 273 -187 644 -368 983 -479 118 -39 355 -102 427 -114 19 -3 42 -8
50 -10 16 -5 69 -14 110 -20 14 -2 39 -6 55 -9 250 -44 789 -55 1040 -21 17 3
68 9 115 15 106 14 327 56 398 75 28 8 78 22 110 30 381 102 779 284 1136 519
245 161 408 295 636 525 376 378 679 837 864 1311 27 69 52 134 57 145 12 29
50 147 54 168 2 9 6 21 9 25 7 11 62 226 80 312 18 84 20 98 41 225 13 84 18
117 30 220 21 184 21 650 0 785 -2 14 -6 52 -10 85 -6 56 -8 72 -20 143 -2 15
-7 43 -10 62 -3 19 -10 58 -15 85 -6 28 -12 60 -15 73 -2 13 -6 31 -9 40 -3 9
-7 28 -10 42 -43 219 -181 600 -311 860 -130 260 -335 576 -490 755 -14 17
-47 55 -72 85 -74 87 -339 348 -438 431 -517 433 -1133 731 -1772 858 -154 31
-213 40 -366 56 -34 4 -75 9 -92 11 -40 6 -530 15 -536 10z"/>
</g>
</svg>
