<?xml version="1.0" encoding="utf-8"?>
<!-- Generator: Adobe Illustrator 27.2.0, SVG Export Plug-In . SVG Version: 6.00 Build 0)  -->
<svg version="1.1" id="Layer_1" xmlns="http://www.w3.org/2000/svg" xmlns:xlink="http://www.w3.org/1999/xlink" x="0px" y="0px"
	 viewBox="0 0 700.83 153.84" style="enable-background:new 0 0 700.83 153.84;" xml:space="preserve">
<style type="text/css">
	.st0{fill:#2d3741;}
</style>
<rect x="1.05" y="18.14" class="st0" width="15" height="15"/>
<rect x="18.14" y="1.05" class="st0" width="15" height="15"/>
<rect x="35.23" y="18.14" class="st0" width="15" height="15"/>
<rect x="52.33" y="35.23" transform="matrix(-1 -1.224647e-16 1.224647e-16 -1 119.6547 85.4676)" class="st0" width="15" height="15"/>
<rect x="35.23" y="52.33" transform="matrix(-1 -1.224647e-16 1.224647e-16 -1 85.4676 119.6547)" class="st0" width="15" height="15"/>
<rect x="18.14" y="35.23" transform="matrix(-1 -1.224647e-16 1.224647e-16 -1 51.2806 85.4676)" class="st0" width="15" height="15"/>
<rect x="69.42" y="18.14" class="st0" width="15" height="15"/>
<rect x="86.51" y="1.05" class="st0" width="15" height="15"/>
<rect x="103.61" y="18.14" class="st0" width="15" height="15"/>
<rect x="120.7" y="35.23" transform="matrix(-1 -1.224647e-16 1.224647e-16 -1 256.4029 85.4676)" class="st0" width="15" height="15"/>
<rect x="120.7" y="1.05" transform="matrix(-1 -1.224647e-16 1.224647e-16 -1 256.4029 17.0935)" class="st0" width="15" height="15"/>
<rect x="103.61" y="52.33" transform="matrix(-1 -1.224647e-16 1.224647e-16 -1 222.2158 119.6547)" class="st0" width="15" height="15"/>
<rect x="86.51" y="35.23" transform="matrix(-1 -1.224647e-16 1.224647e-16 -1 188.0288 85.4676)" class="st0" width="15" height="15"/>
<rect x="52.33" y="1.05" transform="matrix(-1 -1.224647e-16 1.224647e-16 -1 119.6547 17.0935)" class="st0" width="15" height="15"/>
<rect x="1.05" y="52.33" class="st0" width="15" height="15"/>
<rect x="18.14" y="69.42" class="st0" width="15" height="15"/>
<rect x="35.23" y="86.51" transform="matrix(-1 -1.224647e-16 1.224647e-16 -1 85.4676 188.0288)" class="st0" width="15" height="15"/>
<rect x="52.33" y="103.61" transform="matrix(-1 -1.224647e-16 1.224647e-16 -1 119.6547 222.2158)" class="st0" width="15" height="15"/>
<rect x="18.14" y="103.61" transform="matrix(-1 -1.224647e-16 1.224647e-16 -1 51.2806 222.2158)" class="st0" width="15" height="15"/>
<rect x="1.05" y="86.51" transform="matrix(-1 -1.224647e-16 1.224647e-16 -1 17.0935 188.0288)" class="st0" width="15" height="15"/>
<rect x="52.33" y="69.42" class="st0" width="15" height="15"/>
<rect x="69.42" y="52.33" class="st0" width="15" height="15"/>
<rect x="86.51" y="69.42" class="st0" width="15" height="15"/>
<rect x="103.61" y="86.51" transform="matrix(-1 -1.224647e-16 1.224647e-16 -1 222.2158 188.0288)" class="st0" width="15" height="15"/>
<rect x="86.51" y="103.61" transform="matrix(-1 -1.224647e-16 1.224647e-16 -1 188.0288 222.2158)" class="st0" width="15" height="15"/>
<rect x="69.42" y="86.51" transform="matrix(-1 -1.224647e-16 1.224647e-16 -1 153.8417 188.0288)" class="st0" width="15" height="15"/>
<rect x="137.79" y="18.14" class="st0" width="15" height="15"/>
<rect x="154.89" y="1.05" class="st0" width="15" height="15"/>
<rect x="171.98" y="18.14" class="st0" width="15" height="15"/>
<rect x="189.08" y="35.23" transform="matrix(-1 -1.224647e-16 1.224647e-16 -1 393.1511 85.4676)" class="st0" width="15" height="15"/>
<rect x="171.98" y="52.33" transform="matrix(-1 -1.224647e-16 1.224647e-16 -1 358.964 119.6547)" class="st0" width="15" height="15"/>
<rect x="154.89" y="35.23" transform="matrix(-1 -1.224647e-16 1.224647e-16 -1 324.777 85.4676)" class="st0" width="15" height="15"/>
<rect x="206.17" y="18.14" class="st0" width="15" height="15"/>
<rect x="223.26" y="1.05" class="st0" width="15" height="15"/>
<rect x="240.36" y="18.14" class="st0" width="15" height="15"/>
<rect x="257.45" y="35.23" transform="matrix(-1 -1.224647e-16 1.224647e-16 -1 529.8993 85.4676)" class="st0" width="15" height="15"/>
<rect x="257.45" y="1.05" transform="matrix(-1 -1.224647e-16 1.224647e-16 -1 529.8993 17.0935)" class="st0" width="15" height="15"/>
<rect x="240.36" y="52.33" transform="matrix(-1 -1.224647e-16 1.224647e-16 -1 495.7122 119.6547)" class="st0" width="15" height="15"/>
<rect x="223.26" y="35.23" transform="matrix(-1 -1.224647e-16 1.224647e-16 -1 461.5252 85.4676)" class="st0" width="15" height="15"/>
<rect x="189.08" y="1.05" transform="matrix(-1 -1.224647e-16 1.224647e-16 -1 393.1511 17.0935)" class="st0" width="15" height="15"/>
<rect x="120.7" y="69.42" class="st0" width="15" height="15"/>
<rect x="137.79" y="52.33" class="st0" width="15" height="15"/>
<rect x="154.89" y="69.42" class="st0" width="15" height="15"/>
<rect x="171.98" y="86.51" transform="matrix(-1 -1.224647e-16 1.224647e-16 -1 358.964 188.0288)" class="st0" width="15" height="15"/>
<rect x="154.89" y="103.61" transform="matrix(-1 -1.224647e-16 1.224647e-16 -1 324.777 222.2158)" class="st0" width="15" height="15"/>
<rect x="189.08" y="103.61" transform="matrix(-1 -1.224647e-16 1.224647e-16 -1 393.1511 222.2158)" class="st0" width="15" height="15"/>
<rect x="137.79" y="86.51" transform="matrix(-1 -1.224647e-16 1.224647e-16 -1 290.5899 188.0288)" class="st0" width="15" height="15"/>
<rect x="120.7" y="103.61" transform="matrix(-1 -1.224647e-16 1.224647e-16 -1 256.4029 222.2158)" class="st0" width="15" height="15"/>
<rect x="189.08" y="69.42" class="st0" width="15" height="15"/>
<rect x="206.17" y="52.33" class="st0" width="15" height="15"/>
<rect x="223.26" y="69.42" class="st0" width="15" height="15"/>
<rect x="240.36" y="86.51" transform="matrix(-1 -1.224647e-16 1.224647e-16 -1 495.7122 188.0288)" class="st0" width="15" height="15"/>
<rect x="223.26" y="103.61" transform="matrix(-1 -1.224647e-16 1.224647e-16 -1 461.5252 222.2158)" class="st0" width="15" height="15"/>
<rect x="257.45" y="103.61" transform="matrix(-1 -1.224647e-16 1.224647e-16 -1 529.8993 222.2158)" class="st0" width="15" height="15"/>
<rect x="257.45" y="69.42" transform="matrix(-1 -1.224647e-16 1.224647e-16 -1 529.8993 153.8417)" class="st0" width="15" height="15"/>
<rect x="206.17" y="86.51" transform="matrix(-1 -1.224647e-16 1.224647e-16 -1 427.3381 188.0288)" class="st0" width="15" height="15"/>
<rect x="274.54" y="18.14" class="st0" width="15" height="15"/>
<rect x="291.64" y="1.05" class="st0" width="15" height="15"/>
<rect x="308.73" y="18.14" class="st0" width="15" height="15"/>
<rect x="325.82" y="35.23" transform="matrix(-1 -1.224647e-16 1.224647e-16 -1 666.6475 85.4676)" class="st0" width="15" height="15"/>
<rect x="308.73" y="52.33" transform="matrix(-1 -1.224647e-16 1.224647e-16 -1 632.4604 119.6547)" class="st0" width="15" height="15"/>
<rect x="291.64" y="35.23" transform="matrix(-1 -1.224647e-16 1.224647e-16 -1 598.2734 85.4676)" class="st0" width="15" height="15"/>
<rect x="342.92" y="18.14" class="st0" width="15" height="15"/>
<rect x="360.01" y="1.05" class="st0" width="15" height="15"/>
<rect x="377.1" y="18.14" class="st0" width="15" height="15"/>
<rect x="394.2" y="35.23" transform="matrix(-1 -1.224647e-16 1.224647e-16 -1 803.3957 85.4676)" class="st0" width="15" height="15"/>
<rect x="394.2" y="1.05" transform="matrix(-1 -1.224647e-16 1.224647e-16 -1 803.3957 17.0935)" class="st0" width="15" height="15"/>
<rect x="377.1" y="52.33" transform="matrix(-1 -1.224647e-16 1.224647e-16 -1 769.2086 119.6547)" class="st0" width="15" height="15"/>
<rect x="360.01" y="35.23" transform="matrix(-1 -1.224647e-16 1.224647e-16 -1 735.0216 85.4676)" class="st0" width="15" height="15"/>
<rect x="325.82" y="1.05" transform="matrix(-1 -1.224647e-16 1.224647e-16 -1 666.6475 17.0935)" class="st0" width="15" height="15"/>
<rect x="274.54" y="52.33" class="st0" width="15" height="15"/>
<rect x="291.64" y="69.42" class="st0" width="15" height="15"/>
<rect x="308.73" y="86.51" transform="matrix(-1 -1.224647e-16 1.224647e-16 -1 632.4604 188.0288)" class="st0" width="15" height="15"/>
<rect x="325.82" y="103.61" transform="matrix(-1 -1.224647e-16 1.224647e-16 -1 666.6475 222.2158)" class="st0" width="15" height="15"/>
<rect x="291.64" y="103.61" transform="matrix(-1 -1.224647e-16 1.224647e-16 -1 598.2734 222.2158)" class="st0" width="15" height="15"/>
<rect x="274.54" y="86.51" transform="matrix(-1 -1.224647e-16 1.224647e-16 -1 564.0863 188.0288)" class="st0" width="15" height="15"/>
<rect x="325.82" y="69.42" class="st0" width="15" height="15"/>
<rect x="342.92" y="52.33" class="st0" width="15" height="15"/>
<rect x="360.01" y="69.42" class="st0" width="15" height="15"/>
<rect x="377.1" y="86.51" transform="matrix(-1 -1.224647e-16 1.224647e-16 -1 769.2086 188.0288)" class="st0" width="15" height="15"/>
<rect x="360.01" y="103.61" transform="matrix(-1 -1.224647e-16 1.224647e-16 -1 735.0216 222.2158)" class="st0" width="15" height="15"/>
<rect x="342.92" y="86.51" transform="matrix(-1 -1.224647e-16 1.224647e-16 -1 700.8345 188.0288)" class="st0" width="15" height="15"/>
<rect x="411.29" y="18.14" class="st0" width="15" height="15"/>
<rect x="428.38" y="1.05" class="st0" width="15" height="15"/>
<rect x="445.48" y="18.14" class="st0" width="15" height="15"/>
<rect x="462.57" y="35.23" transform="matrix(-1 -1.224647e-16 1.224647e-16 -1 940.1439 85.4676)" class="st0" width="15" height="15"/>
<rect x="445.48" y="52.33" transform="matrix(-1 -1.224647e-16 1.224647e-16 -1 905.9568 119.6547)" class="st0" width="15" height="15"/>
<rect x="428.38" y="35.23" transform="matrix(-1 -1.224647e-16 1.224647e-16 -1 871.7698 85.4676)" class="st0" width="15" height="15"/>
<rect x="479.67" y="18.14" class="st0" width="15" height="15"/>
<rect x="496.76" y="1.05" class="st0" width="15" height="15"/>
<rect x="513.85" y="18.14" class="st0" width="15" height="15"/>
<rect x="530.95" y="35.23" transform="matrix(-1 -1.224647e-16 1.224647e-16 -1 1076.8921 85.4676)" class="st0" width="15" height="15"/>
<rect x="530.95" y="1.05" transform="matrix(-1 -1.224647e-16 1.224647e-16 -1 1076.8921 17.0935)" class="st0" width="15" height="15"/>
<rect x="513.85" y="52.33" transform="matrix(-1 -1.224647e-16 1.224647e-16 -1 1042.7051 119.6547)" class="st0" width="15" height="15"/>
<rect x="496.76" y="35.23" transform="matrix(-1 -1.224647e-16 1.224647e-16 -1 1008.518 85.4676)" class="st0" width="15" height="15"/>
<rect x="462.57" y="1.05" transform="matrix(-1 -1.224647e-16 1.224647e-16 -1 940.1439 17.0935)" class="st0" width="15" height="15"/>
<rect x="394.2" y="69.42" class="st0" width="15" height="15"/>
<rect x="411.29" y="52.33" class="st0" width="15" height="15"/>
<rect x="428.38" y="69.42" class="st0" width="15" height="15"/>
<rect x="445.48" y="86.51" transform="matrix(-1 -1.224647e-16 1.224647e-16 -1 905.9568 188.0288)" class="st0" width="15" height="15"/>
<rect x="428.38" y="103.61" transform="matrix(-1 -1.224647e-16 1.224647e-16 -1 871.7698 222.2158)" class="st0" width="15" height="15"/>
<rect x="462.57" y="103.61" transform="matrix(-1 -1.224647e-16 1.224647e-16 -1 940.1439 222.2158)" class="st0" width="15" height="15"/>
<rect x="411.29" y="86.51" transform="matrix(-1 -1.224647e-16 1.224647e-16 -1 837.5828 188.0288)" class="st0" width="15" height="15"/>
<rect x="394.2" y="103.61" transform="matrix(-1 -1.224647e-16 1.224647e-16 -1 803.3957 222.2158)" class="st0" width="15" height="15"/>
<rect x="462.57" y="69.42" class="st0" width="15" height="15"/>
<rect x="479.67" y="52.33" class="st0" width="15" height="15"/>
<rect x="496.76" y="69.42" class="st0" width="15" height="15"/>
<rect x="513.85" y="86.51" transform="matrix(-1 -1.224647e-16 1.224647e-16 -1 1042.7051 188.0288)" class="st0" width="15" height="15"/>
<rect x="496.76" y="103.61" transform="matrix(-1 -1.224647e-16 1.224647e-16 -1 1008.518 222.2158)" class="st0" width="15" height="15"/>
<rect x="530.95" y="103.61" transform="matrix(-1 -1.224647e-16 1.224647e-16 -1 1076.8921 222.2158)" class="st0" width="15" height="15"/>
<rect x="530.95" y="69.42" transform="matrix(-1 -1.224647e-16 1.224647e-16 -1 1076.8921 153.8417)" class="st0" width="15" height="15"/>
<rect x="479.67" y="86.51" transform="matrix(-1 -1.224647e-16 1.224647e-16 -1 974.3309 188.0288)" class="st0" width="15" height="15"/>
<rect x="1.05" y="120.7" class="st0" width="15" height="15"/>
<rect x="18.14" y="137.79" class="st0" width="15" height="15"/>
<rect x="52.33" y="137.79" class="st0" width="15" height="15"/>
<rect x="69.42" y="120.7" class="st0" width="15" height="15"/>
<rect x="86.51" y="137.79" class="st0" width="15" height="15"/>
<rect x="103.61" y="120.7" transform="matrix(-1 -1.224647e-16 1.224647e-16 -1 222.2158 256.4029)" class="st0" width="15" height="15"/>
<rect x="35.23" y="120.7" transform="matrix(-1 -1.224647e-16 1.224647e-16 -1 85.4676 256.4029)" class="st0" width="15" height="15"/>
<rect x="120.7" y="137.79" class="st0" width="15" height="15"/>
<rect x="137.79" y="120.7" class="st0" width="15" height="15"/>
<rect x="154.89" y="137.79" class="st0" width="15" height="15"/>
<rect x="189.08" y="137.79" class="st0" width="15" height="15"/>
<rect x="206.17" y="120.7" class="st0" width="15" height="15"/>
<rect x="223.26" y="137.79" class="st0" width="15" height="15"/>
<rect x="240.36" y="120.7" transform="matrix(-1 -1.224647e-16 1.224647e-16 -1 495.7122 256.4029)" class="st0" width="15" height="15"/>
<rect x="171.98" y="120.7" transform="matrix(-1 -1.224647e-16 1.224647e-16 -1 358.964 256.4029)" class="st0" width="15" height="15"/>
<rect x="257.45" y="137.79" class="st0" width="15" height="15"/>
<rect x="274.54" y="120.7" class="st0" width="15" height="15"/>
<rect x="291.64" y="137.79" class="st0" width="15" height="15"/>
<rect x="325.82" y="137.79" class="st0" width="15" height="15"/>
<rect x="342.92" y="120.7" class="st0" width="15" height="15"/>
<rect x="360.01" y="137.79" class="st0" width="15" height="15"/>
<rect x="377.1" y="120.7" transform="matrix(-1 -1.224647e-16 1.224647e-16 -1 769.2086 256.4029)" class="st0" width="15" height="15"/>
<rect x="308.73" y="120.7" transform="matrix(-1 -1.224647e-16 1.224647e-16 -1 632.4604 256.4029)" class="st0" width="15" height="15"/>
<rect x="394.2" y="137.79" class="st0" width="15" height="15"/>
<rect x="411.29" y="120.7" class="st0" width="15" height="15"/>
<rect x="428.38" y="137.79" class="st0" width="15" height="15"/>
<rect x="462.57" y="137.79" class="st0" width="15" height="15"/>
<rect x="479.67" y="120.7" class="st0" width="15" height="15"/>
<rect x="496.76" y="137.79" class="st0" width="15" height="15"/>
<rect x="513.85" y="120.7" transform="matrix(-1 -1.224647e-16 1.224647e-16 -1 1042.7051 256.4029)" class="st0" width="15" height="15"/>
<rect x="445.48" y="120.7" transform="matrix(-1 -1.224647e-16 1.224647e-16 -1 905.9568 256.4029)" class="st0" width="15" height="15"/>
<rect x="530.95" y="137.79" class="st0" width="15" height="15"/>
<rect x="548.04" y="120.7" class="st0" width="15" height="15"/>
<rect x="565.13" y="137.79" class="st0" width="15" height="15"/>
<rect x="599.32" y="137.79" class="st0" width="15" height="15"/>
<rect x="616.41" y="120.7" class="st0" width="15" height="15"/>
<rect x="633.51" y="137.79" class="st0" width="15" height="15"/>
<rect x="650.6" y="120.7" transform="matrix(-1 -1.224647e-16 1.224647e-16 -1 1316.2014 256.4029)" class="st0" width="15" height="15"/>
<rect x="582.23" y="120.7" transform="matrix(-1 -1.224647e-16 1.224647e-16 -1 1179.4532 256.4029)" class="st0" width="15" height="15"/>
<rect x="667.69" y="137.79" class="st0" width="15" height="15"/>
<rect x="684.79" y="120.7" class="st0" width="15" height="15"/>
<rect x="548.04" y="18.14" class="st0" width="15" height="15"/>
<rect x="565.13" y="1.05" class="st0" width="15" height="15"/>
<rect x="582.23" y="18.14" class="st0" width="15" height="15"/>
<rect x="599.32" y="35.23" transform="matrix(-1 -1.224647e-16 1.224647e-16 -1 1213.6403 85.4676)" class="st0" width="15" height="15"/>
<rect x="582.23" y="52.33" transform="matrix(-1 -1.224647e-16 1.224647e-16 -1 1179.4532 119.6547)" class="st0" width="15" height="15"/>
<rect x="565.13" y="35.23" transform="matrix(-1 -1.224647e-16 1.224647e-16 -1 1145.2662 85.4676)" class="st0" width="15" height="15"/>
<rect x="616.41" y="18.14" class="st0" width="15" height="15"/>
<rect x="633.51" y="1.05" class="st0" width="15" height="15"/>
<rect x="650.6" y="18.14" class="st0" width="15" height="15"/>
<rect x="667.69" y="35.23" transform="matrix(-1 -1.224647e-16 1.224647e-16 -1 1350.3885 85.4676)" class="st0" width="15" height="15"/>
<rect x="667.69" y="1.05" transform="matrix(-1 -1.224647e-16 1.224647e-16 -1 1350.3885 17.0935)" class="st0" width="15" height="15"/>
<rect x="650.6" y="52.33" transform="matrix(-1 -1.224647e-16 1.224647e-16 -1 1316.2014 119.6547)" class="st0" width="15" height="15"/>
<rect x="633.51" y="35.23" transform="matrix(-1 -1.224647e-16 1.224647e-16 -1 1282.0144 85.4676)" class="st0" width="15" height="15"/>
<rect x="599.32" y="1.05" transform="matrix(-1 -1.224647e-16 1.224647e-16 -1 1213.6403 17.0935)" class="st0" width="15" height="15"/>
<rect x="548.04" y="52.33" class="st0" width="15" height="15"/>
<rect x="565.13" y="69.42" class="st0" width="15" height="15"/>
<rect x="582.23" y="86.51" transform="matrix(-1 -1.224647e-16 1.224647e-16 -1 1179.4532 188.0288)" class="st0" width="15" height="15"/>
<rect x="599.32" y="103.61" transform="matrix(-1 -1.224647e-16 1.224647e-16 -1 1213.6403 222.2158)" class="st0" width="15" height="15"/>
<rect x="565.13" y="103.61" transform="matrix(-1 -1.224647e-16 1.224647e-16 -1 1145.2662 222.2158)" class="st0" width="15" height="15"/>
<rect x="548.04" y="86.51" transform="matrix(-1 -1.224647e-16 1.224647e-16 -1 1111.0791 188.0288)" class="st0" width="15" height="15"/>
<rect x="599.32" y="69.42" class="st0" width="15" height="15"/>
<rect x="616.41" y="52.33" class="st0" width="15" height="15"/>
<rect x="633.51" y="69.42" class="st0" width="15" height="15"/>
<rect x="650.6" y="86.51" transform="matrix(-1 -1.224647e-16 1.224647e-16 -1 1316.2014 188.0288)" class="st0" width="15" height="15"/>
<rect x="633.51" y="103.61" transform="matrix(-1 -1.224647e-16 1.224647e-16 -1 1282.0144 222.2158)" class="st0" width="15" height="15"/>
<rect x="616.41" y="86.51" transform="matrix(-1 -1.224647e-16 1.224647e-16 -1 1247.8274 188.0288)" class="st0" width="15" height="15"/>
<rect x="684.79" y="18.14" class="st0" width="15" height="15"/>
<rect x="667.69" y="69.42" class="st0" width="15" height="15"/>
<rect x="684.79" y="52.33" class="st0" width="15" height="15"/>
<rect x="684.79" y="86.51" transform="matrix(-1 -1.224647e-16 1.224647e-16 -1 1384.5756 188.0288)" class="st0" width="15" height="15"/>
<rect x="667.69" y="103.61" transform="matrix(-1 -1.224647e-16 1.224647e-16 -1 1350.3885 222.2158)" class="st0" width="15" height="15"/>
</svg>
