<?xml version="1.0" encoding="utf-8"?>
<!-- Generator: Adobe Illustrator 27.2.0, SVG Export Plug-In . SVG Version: 6.00 Build 0)  -->
<svg version="1.1" id="Layer_1" xmlns="http://www.w3.org/2000/svg" xmlns:xlink="http://www.w3.org/1999/xlink" x="0px" y="0px"
	 viewBox="0 0 800 800" style="enable-background:new 0 0 800 800;" xml:space="preserve">
<style type="text/css">
	.st0{fill:#9EA3A8;}
</style>
<g>
	<g>
		<path d="M400,183.8c-220.6,0-400,179.4-400,400c0,17.9,14.5,32.4,32.4,32.4c8.3,0,15.9-3.2,21.6-8.3c5.7,5.1,13.3,8.3,21.6,8.3
			h194.6H400h129.7h194.6c8.3,0,15.9-3.2,21.6-8.3c5.7,5.1,13.3,8.3,21.6,8.3c17.9,0,32.4-14.5,32.4-32.4
			C800,363.2,620.6,183.8,400,183.8z M367.6,551.4h-64.9v-64.9h64.9V551.4z M497.3,551.4h-64.9v-64.9h64.9V551.4z M562.2,551.4
			v-97.3c0-17.9-14.5-32.4-32.4-32.4H400H270.3c-17.9,0-32.4,14.5-32.4,32.4v97.3H109.9C126.1,405.6,250,291.9,400,291.9
			s273.9,113.7,290.1,259.5H562.2z"/>
	</g>
</g>
<rect x="641.9" y="212.4" class="st0" width="52.8" height="52.8"/>
<rect x="641.9" y="159.6" class="st0" width="52.8" height="52.8"/>
<rect x="641.9" y="106.7" class="st0" width="52.8" height="52.8"/>
<rect x="641.9" y="53.9" class="st0" width="52.8" height="52.8"/>
<rect x="641.9" y="1" class="st0" width="52.8" height="52.8"/>
<rect x="536.2" y="106.7" class="st0" width="52.8" height="52.8"/>
<rect x="589" y="106.7" class="st0" width="52.8" height="52.8"/>
<rect x="694.7" y="106.7" class="st0" width="52.8" height="52.8"/>
<rect x="747.6" y="106.7" class="st0" width="52.8" height="52.8"/>
</svg>
