<?xml version="1.0" encoding="iso-8859-1"?>
<!-- Uploaded to: SVG Repo, www.svgrepo.com, Generator: SVG Repo Mixer Tools -->
<svg fill="#ffffff" height="800px" width="800px" version="1.1" id="Layer_1" xmlns="http://www.w3.org/2000/svg" xmlns:xlink="http://www.w3.org/1999/xlink" 
	 viewBox="0 0 512 512" xml:space="preserve">
<g>
	<g>
		<g>
			<path d="M452.267,460.8h-21.333l-64-85.333h25.6c25.318,0,46.345-18.492,50.432-42.667h-50.432c-4.719,0-8.533-3.814-8.533-8.533
				c0-4.719,3.814-8.533,8.533-8.533h51.2V204.8h-52.062c-3.968,19.448-21.205,34.133-41.805,34.133
				c-20.599,0-37.837-14.686-41.805-34.133h-43.529c-4.719,0-8.533-3.814-8.533-8.533s3.814-8.533,8.533-8.533h43.529
				c3.968-19.447,21.205-34.133,41.805-34.133c20.599,0,37.837,14.686,41.805,34.133h52.062V128h-42.667
				c-4.719,0-8.533-3.814-8.533-8.533s3.814-8.533,8.533-8.533h41.899c-4.087-24.175-25.114-42.667-50.432-42.667v-8.533
				c0-14.114-11.486-25.6-25.6-25.6H221.867V25.6c0-4.719-3.814-8.533-8.533-8.533S204.8,20.881,204.8,25.6v8.533h-17.067v-25.6
				c0-4.719-3.814-8.533-8.533-8.533s-8.533,3.814-8.533,8.533v25.6h-25.6c-14.114,0-25.6,11.486-25.6,25.6v8.533
				c-25.318,0-46.345,18.492-50.432,42.667h76.032c4.719,0,8.533,3.814,8.533,8.533S149.786,128,145.067,128h-76.8v25.6H179.2
				c14.114,0,25.6,11.486,25.6,25.6v85.333c0,14.114-11.486,25.6-25.6,25.6H68.267v25.6H128c4.719,0,8.533,3.814,8.533,8.533
				c0,4.719-3.814,8.533-8.533,8.533H69.035c4.087,24.175,25.114,42.667,50.432,42.667h25.6l-64,85.333H59.733
				c-14.114,0-25.6,11.486-25.6,25.6v17.067c0,4.719,3.814,8.533,8.533,8.533H128c4.719,0,8.533-3.814,8.533-8.533V486.4
				c0-14.114-11.486-25.6-25.6-25.6H102.4l64-85.333h81.067V460.8H230.4c-14.114,0-25.6,11.486-25.6,25.6v17.067
				c0,4.719,3.814,8.533,8.533,8.533h85.333c4.719,0,8.533-3.814,8.533-8.533V486.4c0-14.114-11.486-25.6-25.6-25.6h-17.067v-85.333
				H345.6l64,85.333h-8.533c-14.114,0-25.6,11.486-25.6,25.6v17.067c0,4.719,3.814,8.533,8.533,8.533h85.333
				c4.719,0,8.533-3.814,8.533-8.533V486.4C477.867,472.286,466.381,460.8,452.267,460.8z M366.933,110.933
				c4.71,0,8.533,3.823,8.533,8.533S371.644,128,366.933,128s-8.533-3.823-8.533-8.533S362.223,110.933,366.933,110.933z
				 M162.133,332.8c-4.71,0-8.533-3.823-8.533-8.533s3.823-8.533,8.533-8.533c4.71,0,8.533,3.823,8.533,8.533
				S166.844,332.8,162.133,332.8z M307.2,110.933h25.6c4.719,0,8.533,3.814,8.533,8.533S337.519,128,332.8,128h-25.6
				c-4.719,0-8.533-3.814-8.533-8.533S302.481,110.933,307.2,110.933z M196.267,128c-4.719,0-8.533-3.814-8.533-8.533
				s3.814-8.533,8.533-8.533H256c4.719,0,8.533,3.814,8.533,8.533S260.719,128,256,128H196.267z M238.933,332.8h-42.667
				c-4.719,0-8.533-3.814-8.533-8.533c0-4.719,3.814-8.533,8.533-8.533h42.667c4.719,0,8.533,3.814,8.533,8.533
				C247.467,328.986,243.652,332.8,238.933,332.8z M341.333,332.8H281.6c-4.719,0-8.533-3.814-8.533-8.533
				c0-4.719,3.814-8.533,8.533-8.533h59.733c4.719,0,8.533,3.814,8.533,8.533C349.867,328.986,346.052,332.8,341.333,332.8z"/>
			<path d="M324.267,196.267c0,14.114,11.486,25.6,25.6,25.6c14.114,0,25.6-11.486,25.6-25.6s-11.486-25.6-25.6-25.6
				C335.753,170.667,324.267,182.153,324.267,196.267z"/>
			<path d="M187.733,264.533V179.2c0-4.71-3.823-8.533-8.533-8.533H68.267v102.4H179.2
				C183.91,273.067,187.733,269.244,187.733,264.533z"/>
		</g>
	</g>
</g>
</svg>