<?xml version="1.0" encoding="utf-8"?>
<!-- Generator: Adobe Illustrator 27.2.0, SVG Export Plug-In . SVG Version: 6.00 Build 0)  -->
<svg version="1.1" id="Layer_1" xmlns="http://www.w3.org/2000/svg" xmlns:xlink="http://www.w3.org/1999/xlink" x="0px" y="0px"
	 viewBox="0 0 136.75 153.84" style="enable-background:new 0 0 136.75 153.84;" xml:space="preserve">
<style type="text/css">
	.st0{fill:#9EA3A8;}
	.st1{display:none;opacity:0.5;fill:#010101;}
</style>
<rect x="1.05" y="35.23" class="st0" width="15" height="15"/>
<rect x="18.14" y="18.14" class="st0" width="15" height="15"/>
<rect x="35.23" y="1.05" class="st0" width="15" height="15"/>
<rect x="1.05" y="52.33" transform="matrix(-1 -1.224647e-16 1.224647e-16 -1 17.0935 119.6547)" class="st0" width="15" height="15"/>
<rect x="35.23" y="86.51" transform="matrix(-1 -1.224647e-16 1.224647e-16 -1 85.4676 188.0288)" class="st0" width="15" height="15"/>
<rect x="52.33" y="1.05" class="st0" width="15" height="15"/>
<rect x="52.33" y="86.51" transform="matrix(-1 -1.224647e-16 1.224647e-16 -1 119.6547 188.0288)" class="st0" width="15" height="15"/>
<rect x="69.42" y="69.42" transform="matrix(-1 -1.224647e-16 1.224647e-16 -1 153.8417 153.8417)" class="st0" width="15" height="15"/>
<rect x="86.51" y="86.51" transform="matrix(-1 -1.224647e-16 1.224647e-16 -1 188.0288 188.0288)" class="st0" width="15" height="15"/>
<rect x="103.61" y="103.61" transform="matrix(-1 -1.224647e-16 1.224647e-16 -1 222.2158 222.2158)" class="st0" width="15" height="15"/>
<rect x="120.7" y="120.7" transform="matrix(-1 -1.224647e-16 1.224647e-16 -1 256.4029 256.4029)" class="st0" width="15" height="15"/>
<rect x="120.7" y="137.79" transform="matrix(-1 -1.224647e-16 1.224647e-16 -1 256.4029 290.5899)" class="st0" width="15" height="15"/>
<rect x="69.42" y="86.51" transform="matrix(-1 -1.224647e-16 1.224647e-16 -1 153.8417 188.0288)" class="st0" width="15" height="15"/>
<rect x="86.51" y="103.61" transform="matrix(-1 -1.224647e-16 1.224647e-16 -1 188.0288 222.2158)" class="st0" width="15" height="15"/>
<rect x="103.61" y="120.7" transform="matrix(-1 -1.224647e-16 1.224647e-16 -1 222.2158 256.4029)" class="st0" width="15" height="15"/>
<rect x="86.51" y="52.33" transform="matrix(-1 -1.224647e-16 1.224647e-16 -1 188.0288 119.6547)" class="st0" width="15" height="15"/>
<rect x="86.51" y="35.23" transform="matrix(-1 -1.224647e-16 1.224647e-16 -1 188.0288 85.4676)" class="st0" width="15" height="15"/>
<rect x="69.42" y="18.14" transform="matrix(-1 -1.224647e-16 1.224647e-16 -1 153.8417 51.2806)" class="st0" width="15" height="15"/>
<rect x="18.14" y="69.42" transform="matrix(-1 -1.224647e-16 1.224647e-16 -1 51.2806 153.8417)" class="st0" width="15" height="15"/>
<path class="st1" d="M0,53.4C0,28.01,20.58,7.43,45.97,7.43S91.93,28.01,91.93,53.4c0,8.69-2.41,16.83-6.46,23.9l33.19,33.19
	c4.31,4.31,4.31,11.29,0,15.6c-4.31,4.31-11.29,4.31-15.6,0L69.72,92.75c-6.93,4.19-15.06,6.61-23.76,6.61
	C20.58,99.36,0,78.78,0,53.4z M14.71,53.4c0,17.26,13.99,31.26,31.26,31.26S77.22,70.66,77.22,53.4S63.23,22.14,45.97,22.14
	S14.71,36.13,14.71,53.4z"/>
</svg>
