<!DOCTYPE svg PUBLIC "-//W3C//DTD SVG 1.1//EN" "http://www.w3.org/Graphics/SVG/1.1/DTD/svg11.dtd">
<!-- Uploaded to: SVG Repo, www.svgrepo.com, Transformed by: SVG Repo Mixer Tools -->
<svg version="1.1" id="_x32_" xmlns="http://www.w3.org/2000/svg" xmlns:xlink="http://www.w3.org/1999/xlink" width="64px" height="64px" viewBox="0 0 512 512" xml:space="preserve" fill="#000000">
<g id="SVGRepo_bgCarrier" stroke-width="0"/>
<g id="SVGRepo_tracerCarrier" stroke-linecap="round" stroke-linejoin="round"/>
<g id="SVGRepo_iconCarrier"> <style type="text/css">  .st0{fill:#ffffff;}  </style> <g> <polygon class="st0" points="231.266,471.531 220.953,512 293.141,512 282.828,471.531 "/> <polygon class="st0" points="91.016,471.531 80.703,512 133.156,512 122.844,471.531 "/> <polygon class="st0" points="389.156,471.531 378.844,512 431.297,512 420.984,471.531 "/> <path class="st0" d="M405.078,106.438c-13.156,0-31.75,22.156-31.75,37.281v188.766c-9.25-6.859-18.438-14.266-26.547-22.922 V114.734C346.781,68.188,294.203,0,257.047,0c-37.172,0-89.75,68.188-89.75,114.734v194.828 c-8.719,9.313-18.688,17.172-28.625,24.469V143.719c0-15.125-18.609-37.281-31.734-37.281c-13.156,0-31.75,22.156-31.75,37.281 v311.984h63.484v-22.344h28.625v29.531h179.484v-29.531h26.547v22.344h63.484V143.719 C436.813,128.594,418.203,106.438,405.078,106.438z M387.344,414.188H126.75c-13.125,0-14.328-37.75,13.984-58.031 c33.391-23.891,73.375-53.484,73.375-117.203c0-29.594,0-44.391,0-71.703c0-22.625,19.219-55.75,42.938-55.75 c23.703,0,42.922,33.125,42.922,55.75c0,27.313,0,42.109,0,71.703c0,63.719,39.984,93.313,73.375,117.203 C401.656,376.438,400.453,414.188,387.344,414.188z"/> <path class="st0" d="M282.078,203.719c0,8.703-50.078,8.703-50.078,0c0-8.688,11.219-15.719,25.047-15.719 S282.078,195.031,282.078,203.719z"/> <path class="st0" d="M209.906,374.25c0,10.594-8.578,19.156-19.172,19.156c-10.578,0-19.156-8.563-19.156-19.156 s8.578-19.156,19.156-19.156C201.328,355.094,209.906,363.656,209.906,374.25z"/> </g> </g>
</svg>